<svg width="36" height="36" viewBox="0 0 36 36" fill="none" xmlns="http://www.w3.org/2000/svg">
<g opacity="0.8">
<path fill-rule="evenodd" clip-rule="evenodd" d="M6 16C6 14.8954 6.89543 14 8 14C11.713 14 15.274 15.475 17.8995 18.1005C20.525 20.726 22 24.287 22 28C22 29.1046 21.1046 30 20 30C18.8954 30 18 29.1046 18 28C18 25.3478 16.9464 22.8043 15.0711 20.9289C13.1957 19.0536 10.6522 18 8 18C6.89543 18 6 17.1046 6 16Z" fill="white"/>
<path fill-rule="evenodd" clip-rule="evenodd" d="M6 8C6 6.89543 6.89543 6 8 6C13.8348 6 19.4305 8.31785 23.5563 12.4437C27.6821 16.5695 30 22.1652 30 28C30 29.1046 29.1046 30 28 30C26.8954 30 26 29.1046 26 28C26 23.2261 24.1036 18.6477 20.7279 15.2721C17.3523 11.8964 12.7739 10 8 10C6.89543 10 6 9.10457 6 8Z" fill="white"/>
<path d="M10 30C12.2091 30 14 28.2091 14 26C14 23.7909 12.2091 22 10 22C7.79086 22 6 23.7909 6 26C6 28.2091 7.79086 30 10 30Z" fill="white"/>
</g>
</svg>
